<svg width="73" height="56" viewBox="0 0 73 56" fill="none" xmlns="http://www.w3.org/2000/svg">
<path d="M47.9519 36.8842C46.7201 38.7763 45.2573 38.8709 44.6799 38.6817C44.6029 38.9087 43.6854 38.9655 43.2363 38.9655C43.3326 39.2493 45.161 40.8576 47.4707 39.2493C49.7803 37.641 52.2825 30.5458 52.2825 29.5052C52.2825 28.4645 53.0524 27.7077 53.6298 28.9375C54.2072 30.1674 52.7637 33.6677 52.2825 34.8975C51.8013 36.1274 50.6465 38.9655 52.7637 40.1007C54.4574 41.0089 57.3188 39.3439 58.5378 38.3979C60.0006 40.2143 62.3551 39.5331 63.3496 38.9655L62.8684 41.236C61.2645 41.5198 57.4792 42.3712 55.1695 43.5064C52.2825 44.9255 50.454 48.9934 51.2239 51.8315C51.9938 54.6696 54.111 55.2372 56.4206 55.5211C58.7303 55.8049 61.906 55.2372 63.927 52.683C65.9479 50.1287 69.7974 31.3972 69.9898 29.8836C70.1823 28.3699 67.7764 26.8563 66.4291 26.8563C65.0818 26.8563 64.5044 34.8975 63.927 36.4112C63.3496 37.9249 62.3872 37.4518 61.906 36.8842C61.4249 36.3166 62.9646 30.6404 62.8684 28.9375C62.7722 27.2347 59.8851 26.8563 59.3077 27.1401C58.7303 27.4239 58.4416 36.1274 58.0566 36.8842C57.6717 37.641 56.2281 37.4518 56.0357 36.1274C55.8432 34.8029 57.4792 31.1134 57.6717 29.5052C57.8256 28.2186 54.4638 27.2032 52.7637 26.8563C52.4108 25.3426 51.3586 22.0883 49.9728 21.1801C48.2406 20.0448 45.2573 20.4233 45.161 23.356C45.0648 26.2887 50.3578 27.6131 51.2239 28.0861C52.09 28.5591 49.4916 34.5191 47.9519 36.8842Z" fill="#0B0200"/>
<path fill-rule="evenodd" clip-rule="evenodd" d="M46.3023 21.9058C45.991 22.2965 45.7849 22.826 45.7605 23.5196C45.7372 24.1837 46.0384 24.7646 46.5396 25.278C47.0429 25.7935 47.7397 26.2318 48.4814 26.6013C49.2216 26.9701 49.9955 27.2651 50.6457 27.4982C50.8082 27.5564 50.9626 27.6107 51.1069 27.6613L51.142 27.6736C51.2728 27.7195 51.3953 27.7624 51.5066 27.8023C51.745 27.8878 51.946 27.9638 52.0748 28.0295C52.2918 28.1403 52.351 28.3803 52.3607 28.5979C52.3711 28.8319 52.3284 29.1278 52.2498 29.4611C52.092 30.1306 51.7787 30.9953 51.3887 31.9114C50.6087 33.7436 49.5078 35.8146 48.6832 36.9981C47.4176 38.8146 45.8913 39.0485 45.1199 38.8879C45.1118 38.8938 45.1037 38.8994 45.0958 38.9045C45.0402 38.9408 44.9753 38.9683 44.9109 38.9899C44.7818 39.0331 44.6222 39.0634 44.4605 39.0852C44.297 39.1073 44.1217 39.1218 43.9568 39.1309C43.9833 39.1512 44.0118 39.1721 44.0421 39.1933C44.2599 39.3457 44.5672 39.5104 44.9435 39.6201C45.688 39.8372 46.7164 39.8441 47.8844 39.0842C48.4602 38.7095 49.0666 38.0001 49.6555 37.1073C50.2411 36.2193 50.7973 35.1691 51.279 34.1329C51.7604 33.0971 52.1657 32.079 52.4503 31.2571C52.5926 30.846 52.7041 30.4856 52.7799 30.1976C52.8572 29.9038 52.8928 29.7011 52.8928 29.597C52.8928 29.3179 52.9479 29.0541 53.0445 28.8339C53.1397 28.6169 53.2826 28.4262 53.4712 28.316C53.6719 28.1986 53.912 28.1818 54.143 28.3024C54.3587 28.4151 54.5473 28.6372 54.708 28.957C54.8856 29.3103 54.8983 29.7987 54.8321 30.3206C54.765 30.85 54.612 31.4461 54.4258 32.0357C54.0953 33.0826 53.6537 34.1289 53.3815 34.7741C53.347 34.8557 53.3152 34.9309 53.2868 34.9989C53.2791 35.0172 53.2714 35.0357 53.2634 35.0546C53.0052 35.6707 52.6065 36.6217 52.5228 37.556C52.437 38.5128 52.6828 39.4035 53.7036 39.9149C54.515 40.3215 55.6432 40.1637 56.776 39.7509C57.8963 39.3426 58.9593 38.7073 59.5931 38.2477L59.7528 38.1319L59.8791 38.2784C60.6061 39.122 61.5502 39.386 62.4492 39.3727C63.3559 39.3593 64.2086 39.0625 64.7115 38.7943L65.1064 38.5836L64.4758 41.3642L64.3404 41.3866C62.6452 41.6669 58.662 42.5056 56.2444 43.616C54.7677 44.2942 53.548 45.6137 52.7979 47.1181C52.0474 48.6233 51.7806 50.2859 52.1727 51.6364C52.5675 52.9963 53.3004 53.7964 54.2193 54.2962C55.1487 54.8017 56.2842 55.009 57.5031 55.149C59.9033 55.4246 63.1828 54.8703 65.2643 52.412C65.5117 52.1197 65.8006 51.5767 66.1168 50.8261C66.4307 50.0811 66.7645 49.1494 67.1068 48.0937C67.7913 45.9828 68.5066 43.3868 69.1622 40.8203C70.4743 35.6834 71.5415 30.6856 71.6419 29.9482C71.7297 29.3026 71.2211 28.6118 70.4457 28.0604C69.6774 27.514 68.7269 27.1636 68.0742 27.1636C68.0065 27.1636 67.894 27.2131 67.7473 27.4225C67.6073 27.6223 67.4705 27.9206 67.3386 28.2998C67.0758 29.0557 66.8484 30.0858 66.6448 31.173C66.5104 31.8907 66.3874 32.6271 66.2714 33.3211C66.2118 33.678 66.1541 34.0237 66.0976 34.3499C65.9334 35.2985 65.7777 36.0987 65.6159 36.4949C65.297 37.2761 64.8359 37.6225 64.3171 37.6225C63.8323 37.6225 63.3984 37.314 63.1289 37.017C63.0652 36.9467 63.033 36.856 63.0144 36.7722C62.9949 36.6845 62.9857 36.5822 62.9834 36.4708C62.9788 36.2477 63.0015 35.966 63.0416 35.6473C63.1221 35.0087 63.2761 34.1957 63.4415 33.3542C63.4709 33.2045 63.5007 33.0539 63.5306 32.9031C63.6689 32.2034 63.8081 31.4997 63.9151 30.8669C64.046 30.0928 64.125 29.4446 64.1009 29.0459C64.0572 28.3238 63.378 27.8492 62.5443 27.5864C62.1359 27.4576 61.7113 27.3875 61.3541 27.3665C61.1756 27.3561 61.0172 27.3581 60.8885 27.3701C60.7715 27.3811 60.6907 27.3994 60.6431 27.4174C60.6355 27.4282 60.6246 27.4468 60.6112 27.4759C60.5817 27.5407 60.5499 27.6365 60.5171 27.7643C60.4519 28.0185 60.3892 28.3732 60.329 28.8007C60.2087 29.6541 60.1008 30.776 59.9989 31.917C59.9716 32.2221 59.9448 32.5286 59.9183 32.8315C59.8458 33.6591 59.7757 34.4599 59.7057 35.1324C59.6578 35.5917 59.6097 35.9941 59.5604 36.3063C59.5358 36.4623 59.5105 36.5982 59.4843 36.7085C59.4592 36.8144 59.4298 36.9116 59.3922 36.9809C59.1338 37.4555 58.5357 37.6096 58.0091 37.4753C57.4696 37.3376 56.9814 36.9007 56.8685 36.1749C56.8118 35.8101 56.8904 35.3065 57.0276 34.7541C57.1664 34.1951 57.3723 33.5603 57.5889 32.9223C57.6586 32.7172 57.7292 32.512 57.7993 32.3087C57.9482 31.8764 58.0942 31.4523 58.2216 31.0548C58.4093 30.4688 58.5512 29.9557 58.6 29.5751C58.6292 29.3469 58.4962 29.1011 58.1764 28.8383C57.8602 28.5784 57.396 28.3321 56.8566 28.1088C55.7803 27.6631 54.456 27.3297 53.5646 27.1597L53.4366 27.1353L53.4074 27.0183C53.2227 26.278 52.8542 25.1095 52.3511 24.017C52.0996 23.4709 51.8163 22.9478 51.5081 22.5082C51.1982 22.0663 50.8716 21.7209 50.5382 21.5167C49.669 20.9844 48.486 20.8096 47.5189 21.1057C47.0386 21.2527 46.6138 21.515 46.3023 21.9058ZM47.3901 20.7505C48.4863 20.4149 49.7995 20.6144 50.7643 21.2052C51.1645 21.4503 51.5273 21.8442 51.8507 22.3055C52.1757 22.769 52.4693 23.3129 52.7264 23.8712C53.2148 24.9317 53.5779 26.0588 53.775 26.818C54.6797 26.9978 55.9624 27.3279 57.0241 27.7675C57.5791 27.9973 58.0867 28.2622 58.4482 28.5593C58.8063 28.8536 59.057 29.2107 59.0047 29.6189C58.9516 30.0338 58.8006 30.5736 58.6126 31.1605C58.484 31.5617 58.3358 31.992 58.1863 32.4263C58.1165 32.6287 58.0465 32.8321 57.978 33.0338C57.7616 33.6709 57.5599 34.2938 57.4249 34.8374C57.2883 35.3876 57.2268 35.8316 57.272 36.122C57.3629 36.7064 57.7407 37.0182 58.1182 37.1146C58.5086 37.2142 58.8785 37.0875 59.0276 36.8135C59.0409 36.7891 59.0617 36.7313 59.0861 36.6287C59.1095 36.5305 59.1332 36.4043 59.1571 36.2526C59.2049 35.9496 59.2523 35.5543 59.3 35.0967C59.3697 34.4273 59.4394 33.6309 59.5118 32.8043C59.5383 32.5008 59.5653 32.1932 59.5927 31.8864C59.6945 30.7461 59.8031 29.6159 59.9248 28.7526C59.9856 28.3216 60.0503 27.9517 60.1204 27.6784C60.1553 27.5424 60.1931 27.4237 60.2354 27.3311C60.2565 27.2849 60.2811 27.2399 60.3105 27.2008C60.3385 27.1638 60.381 27.1184 60.4433 27.0898C60.5522 27.0398 60.6954 27.0119 60.8471 26.9977C61.0029 26.9831 61.1844 26.9815 61.3801 26.9929C61.7711 27.0159 62.2317 27.092 62.6766 27.2323C63.5495 27.5075 64.4496 28.0625 64.5078 29.0251C64.5346 29.4687 64.4481 30.1542 64.3178 30.9243C64.21 31.5624 64.0696 32.2721 63.9312 32.972C63.9014 33.1223 63.8718 33.2722 63.8426 33.4207C63.6769 34.2639 63.5252 35.0654 63.4465 35.6903C63.407 36.0033 63.3868 36.2656 63.3909 36.4637C63.3929 36.5628 63.4011 36.6404 63.4137 36.6974C63.4273 36.7584 63.442 36.7774 63.442 36.7773C63.6819 37.0418 64.0122 37.2481 64.3171 37.2481C64.5879 37.2481 64.9419 37.0798 65.2343 36.3635C65.3782 36.011 65.5282 35.2552 65.6951 34.2911C65.7509 33.9689 65.8083 33.6252 65.8678 33.2693C65.9841 32.5732 66.1082 31.8303 66.2432 31.1095C66.4471 30.0207 66.6783 28.9685 66.9504 28.1859C67.086 27.7959 67.2357 27.461 67.4045 27.2199C67.5667 26.9884 67.7854 26.7893 68.0742 26.7893C68.848 26.7893 69.8843 27.1877 70.6952 27.7644C71.4991 28.3361 72.1622 29.1427 72.0463 29.9946C71.9429 30.7547 70.8705 35.7711 69.559 40.9059C68.9027 43.4753 68.1852 46.0794 67.4974 48.2006C67.1535 49.261 66.8163 50.2033 66.4969 50.9612C66.1799 51.7136 65.8734 52.3024 65.586 52.6419C63.3881 55.2376 59.9429 55.8064 57.4525 55.5204C56.2261 55.3796 55.0182 55.1658 54.0116 54.6183C52.9946 54.0652 52.1992 53.1807 51.7789 51.7329C51.3559 50.2756 51.6495 48.5221 52.4273 46.9622C53.2056 45.4014 54.4821 44.0068 56.0621 43.2811C58.4717 42.1745 62.3614 41.343 64.1328 41.0409L64.5272 39.3018C63.98 39.5317 63.2398 39.7354 62.4558 39.747C61.5094 39.761 60.492 39.4941 59.6885 38.653C59.0218 39.1162 58.0033 39.7064 56.9263 40.0988C55.7735 40.519 54.4902 40.7355 53.5084 40.2436C52.2877 39.632 52.0241 38.5573 52.1166 37.5252C52.2053 36.5359 52.6225 35.5414 52.8786 34.9307C52.8881 34.9081 52.8974 34.8861 52.9064 34.8645C52.9352 34.7957 52.9672 34.7199 53.0018 34.6379C53.2745 33.9916 53.7093 32.9613 54.0344 31.9315C54.2176 31.3512 54.3639 30.7774 54.4273 30.2773C54.4917 29.7697 54.4661 29.3689 54.338 29.1139C54.1931 28.8254 54.0506 28.6848 53.9415 28.6279C53.8477 28.5789 53.7694 28.5854 53.69 28.6318C53.5983 28.6854 53.4992 28.7989 53.4225 28.9738C53.3472 29.1455 53.3004 29.3614 53.3004 29.597C53.3004 29.7504 53.2532 29.9921 53.1761 30.2855C53.0974 30.5846 52.9829 30.9539 52.8386 31.3706C52.5501 32.204 52.1403 33.2333 51.6538 34.2799C51.1675 35.3261 50.6029 36.3934 50.0041 37.3013C49.4085 38.2042 48.7668 38.9688 48.1199 39.3897C46.8426 40.2208 45.6804 40.2278 44.8202 39.9769C44.3941 39.8527 44.0455 39.6663 43.7952 39.4911C43.67 39.4035 43.5674 39.3173 43.4908 39.2409C43.4212 39.1716 43.3532 39.0911 43.3257 39.0154L43.2363 38.769H43.5191C43.7507 38.769 44.1019 38.7552 44.4014 38.7148C44.5522 38.6945 44.6804 38.6686 44.7712 38.6382C44.8168 38.6229 44.8448 38.6091 44.8598 38.5994C44.86 38.5993 44.8601 38.5991 44.8603 38.599L44.9185 38.4386L45.1118 38.4978C45.62 38.6534 47.0773 38.6086 48.34 36.7963C49.1456 35.6399 50.2353 33.5929 51.0091 31.775C51.3961 30.8661 51.7004 30.0228 51.8515 29.3819C51.9273 29.0601 51.9618 28.8003 51.9535 28.6132C51.9445 28.4096 51.8891 28.363 51.8768 28.3568C51.7763 28.3055 51.6016 28.2382 51.3585 28.1511C51.2484 28.1117 51.1272 28.0691 50.9958 28.0231L50.9615 28.011C50.8171 27.9604 50.6615 27.9057 50.4976 27.8469C49.8424 27.6121 49.0498 27.3104 48.2871 26.9304C47.5259 26.5512 46.7836 26.0887 46.2361 25.5279C45.6866 24.965 45.3255 24.2941 45.3532 23.5075C45.3797 22.7504 45.6066 22.1451 45.9735 21.6847C46.3403 21.2244 46.8388 20.9193 47.3901 20.7505Z" fill="#0B0200"/>
<path d="M56.9373 46.5541C58.7684 44.8126 62.1254 45.248 63.575 45.6833C65.0627 47.2506 59.455 51.9525 57.5095 51.43C55.564 50.9076 54.6484 48.7308 56.9373 46.5541Z" fill="white"/>
<path fill-rule="evenodd" clip-rule="evenodd" d="M60.3502 45.3022C61.5704 45.2491 62.7402 45.4608 63.4507 45.6741L63.5098 45.6918L63.5469 45.7309C63.9694 46.1756 63.8619 46.8067 63.5281 47.4346C63.188 48.0744 62.5835 48.7694 61.883 49.3959C61.182 50.0229 60.3745 50.5906 59.6186 50.972C59.2409 51.1625 58.8692 51.3101 58.5249 51.3935C58.1834 51.4762 57.8459 51.5014 57.553 51.4228C56.5484 51.1532 55.8231 50.4602 55.6358 49.5729C55.4482 48.6844 55.7987 47.6084 56.9138 46.5487C57.8315 45.6765 59.1275 45.3554 60.3502 45.3022ZM60.375 45.6314C59.2307 45.6812 58.0693 45.9783 57.2524 46.7546C56.1992 47.7555 55.8992 48.7401 56.064 49.5206C56.229 50.3024 56.8589 50.8869 57.6973 51.1119C57.8652 51.1569 58.0969 51.1512 58.3932 51.0794C58.6866 51.0083 59.0213 50.8776 59.3788 50.6973C60.0933 50.3368 60.8713 49.7918 61.5526 49.1824C62.2344 48.5726 62.8089 47.9077 63.1261 47.3111C63.4359 46.7283 63.4747 46.2618 63.2294 45.9625C62.561 45.7698 61.4868 45.583 60.375 45.6314Z" fill="#0B0200"/>
<path d="M40.6635 24.9475C42.1713 24.0889 43.1765 25.7346 43.4906 26.6648C44.5272 24.1962 46.1294 25.2695 46.6949 26.6648C47.2603 28.0601 44.8101 34.6072 44.5274 36.2171C44.3012 37.5051 46.1294 36.2529 47.0718 35.4658L47.3545 37.9344C46.9776 38.2922 45.8844 39.0292 44.5274 39.115C43.1703 39.2009 42.5797 37.7198 42.4541 36.9685C41.229 38.7931 39.4383 39.437 38.2132 38.5784C36.9881 37.7198 36.7996 35.4658 37.3651 32.4606C37.9305 29.4554 38.7787 26.0208 40.6635 24.9475Z" fill="#0B0200"/>
<path fill-rule="evenodd" clip-rule="evenodd" d="M43.451 26.3465C43.2666 25.9422 42.9871 25.4925 42.6183 25.1663C42.3681 24.9451 42.0723 24.7769 41.7344 24.7243C41.395 24.6714 41.0254 24.7372 40.6327 24.9626C39.6667 25.5169 38.9863 26.6671 38.4813 28.0108C37.9744 29.3595 37.6309 30.9396 37.358 32.4011C37.0834 33.872 36.9883 35.1757 37.1174 36.226C37.2465 37.2768 37.6045 38.1017 38.2577 38.5631C39.4731 39.4215 41.1548 38.8439 42.3562 37.268C42.4544 37.5989 42.6156 37.9758 42.854 38.303C43.2033 38.7823 43.7243 39.1609 44.4473 39.1148C45.8014 39.0285 46.8908 38.2905 47.2778 37.9204L47.3545 37.8469L47.0295 34.9864L46.7817 35.195C46.3311 35.5742 45.6783 36.0568 45.1731 36.2901C45.0479 36.3479 44.9369 36.3879 44.844 36.4081C44.7484 36.4289 44.6867 36.4255 44.6517 36.4137C44.626 36.4051 44.6184 36.3948 44.6118 36.3755C44.6009 36.3436 44.5913 36.2716 44.6153 36.1335C44.6805 35.7596 44.8741 35.0844 45.1269 34.2421C45.1911 34.0279 45.259 33.8036 45.3291 33.572C45.532 32.9013 45.7535 32.1691 45.9607 31.4412C46.2393 30.4624 46.4943 29.4831 46.6454 28.6608C46.7209 28.2498 46.7715 27.8722 46.7851 27.5502C46.7985 27.2343 46.7777 26.9454 46.6908 26.7293C46.4036 26.0151 45.8428 25.3526 45.1872 25.205C44.8527 25.1298 44.5009 25.1915 44.1667 25.4398C43.9088 25.6315 43.6676 25.9293 43.451 26.3465ZM41.6856 25.1374C41.4253 25.0968 41.1289 25.1439 40.7952 25.3355C39.945 25.8234 39.3087 26.8619 38.8148 28.1759C38.3228 29.485 37.9852 31.0316 37.7132 32.4884C37.443 33.9358 37.3564 35.1856 37.4771 36.1677C37.5977 37.1493 37.9208 37.8356 38.4481 38.208C39.5149 38.9615 41.1428 38.4251 42.2952 36.6956L42.5418 36.3253L42.6178 36.7832C42.6739 37.121 42.8357 37.628 43.1327 38.0356C43.4252 38.437 43.8425 38.7358 44.4272 38.6986C45.604 38.6235 46.5685 38.0149 46.9681 37.6699L46.7481 35.7342C46.3132 36.0799 45.7646 36.4663 45.3087 36.6769C45.1706 36.7406 45.0358 36.7907 44.9116 36.8177C44.7901 36.8442 44.6634 36.852 44.5497 36.8138C44.4266 36.7725 44.3253 36.6785 44.2737 36.5279C44.2265 36.3899 44.2287 36.2264 44.2591 36.0517C44.3302 35.644 44.5338 34.9382 44.7834 34.1064C44.8483 33.8902 44.9165 33.6646 44.9868 33.4322C45.1895 32.7624 45.4094 32.0356 45.6154 31.3117C45.893 30.3363 46.1431 29.3744 46.29 28.5748C46.3635 28.1747 46.41 27.8211 46.4223 27.53C46.4349 27.2328 46.4103 27.0266 46.361 26.904C46.1033 26.2632 45.6197 25.7272 45.1173 25.6141C44.873 25.5592 44.6174 25.6016 44.3641 25.7898C44.1071 25.9807 43.8425 26.3296 43.6021 26.9066L43.4201 27.3433L43.2687 26.8915C43.125 26.4627 42.8237 25.8742 42.3966 25.4965C42.1851 25.3096 41.9475 25.1781 41.6856 25.1374Z" fill="#0B0200"/>
<path d="M14.4338 40.1048C14.1245 36.0784 17.5265 28.8406 19.2662 25.725C22.1656 17.9188 30.2842 20.5894 31.2507 23.4653C31.954 25.5581 30.5248 27.4697 29.5091 28.365C29.8671 28.3882 30.6106 28.7321 32.0239 29.8335C34.9233 32.0932 37.2429 36.9207 37.0496 40.1048C36.8563 43.2889 33.7635 47.7055 30.2842 49.8625C26.8049 52.0195 23.4222 51.814 21.5859 50.3761C19.7495 48.9381 18.4931 46.8838 21.5859 42.878C24.0601 39.6734 28.4157 38.9407 30.2842 38.9749V40.6184C24.292 39.7966 21.1026 45.6513 22.2624 47.7055C23.4222 49.7598 25.7417 49.1435 28.7378 46.8838C31.7339 44.6241 31.444 39.3858 30.2842 34.661C29.1244 29.9362 25.7417 29.9362 27.2881 27.9847C28.8345 26.0331 28.2546 21.5138 24.6786 22.5409C21.1026 23.568 21.8758 28.0874 21.1026 32.8122C20.3294 37.537 21.1026 43.2889 19.2662 43.2889C17.7971 43.2889 15.4325 41.1662 14.4338 40.1048Z" fill="#0B0200"/>
<path fill-rule="evenodd" clip-rule="evenodd" d="M29.4063 21.519C30.3523 22.056 31.0768 22.7846 31.3371 23.5621C31.7048 24.6601 31.5119 25.7062 31.1061 26.581C30.773 27.2992 30.2934 27.9101 29.8474 28.3573C30.0004 28.4142 30.1773 28.4978 30.3811 28.6116C30.793 28.8415 31.3315 29.2044 32.0307 29.7514C33.4855 30.8893 34.7856 32.6651 35.6982 34.5478C36.6095 36.428 37.1475 38.4425 37.0494 40.0643C36.951 41.6905 36.1202 43.6031 34.8982 45.3666C33.6735 47.1341 32.0395 48.7758 30.3036 49.8559C26.8387 52.012 23.4271 51.8319 21.5428 50.3509C20.6273 49.6313 19.8151 48.7271 19.6499 47.4662C19.4847 46.2057 19.9742 44.6542 21.5086 42.6595C22.7548 41.0393 24.4692 40.0507 26.0948 39.4712C27.7202 38.8919 29.2717 38.7163 30.2112 38.7335C30.3148 38.7354 30.3979 38.8256 30.3979 38.9362V40.5581C30.3979 40.6164 30.3744 40.6718 30.3334 40.7103C30.2923 40.7488 30.2378 40.7666 30.1836 40.7591C27.3051 40.3629 25.1077 41.5749 23.7671 43.1281C23.0956 43.9062 22.6423 44.7664 22.4257 45.5475C22.2073 46.3354 22.2375 47.0102 22.4837 47.4479C22.7514 47.9239 23.0792 48.2342 23.4576 48.4082C23.8373 48.5828 24.2837 48.6273 24.7981 48.5428C25.8341 48.3728 27.111 47.6861 28.5775 46.5759C29.9858 45.5098 30.6383 43.7301 30.7905 41.6069C30.9426 39.4845 30.5916 37.051 30.024 34.7301C29.4694 32.4625 28.3902 31.3289 27.613 30.5124L27.6038 30.5027C27.4094 30.2985 27.2278 30.1075 27.0807 29.9234C26.9336 29.7394 26.8108 29.5502 26.7417 29.3451C26.6707 29.1345 26.659 28.9146 26.7227 28.6789C26.7851 28.4484 26.9169 28.2128 27.1167 27.9597C27.8302 27.0558 28.0604 25.535 27.6879 24.3671C27.5036 23.789 27.1764 23.3128 26.7032 23.0368C26.2314 22.7617 25.589 22.6706 24.7459 22.9137C23.9065 23.1557 23.3322 23.599 22.9239 24.1935C22.5121 24.7933 22.261 25.5589 22.0913 26.4578C21.9215 27.357 21.8361 28.3716 21.7453 29.4639L21.7427 29.4953C21.653 30.5746 21.5574 31.725 21.3676 32.8891C21.098 34.5429 21.0215 36.318 20.9519 37.9341C20.9239 38.5833 20.897 39.2068 20.8592 39.7866C20.7939 40.7873 20.695 41.6667 20.4915 42.2995C20.3895 42.6167 20.2562 42.8888 20.0742 43.0836C19.887 43.284 19.6537 43.3963 19.3748 43.3963C18.9745 43.3963 18.5296 43.2524 18.0821 43.0342C17.6321 42.8148 17.1652 42.5132 16.7173 42.1817C15.8217 41.5189 14.9863 40.725 14.4891 40.1946C14.4572 40.1606 14.4377 40.1156 14.4341 40.0677C14.278 38.0289 15.0551 35.2104 16.0675 32.5427C17.0807 29.873 18.3445 27.3168 19.2036 25.7707C19.9292 23.8179 20.9844 22.507 22.1828 21.6918C23.383 20.8753 24.7159 20.5634 25.9828 20.5894C27.2486 20.6153 28.4538 20.9785 29.4063 21.519ZM29.3771 28.2624C29.2669 28.2676 29.1643 28.3008 29.0858 28.3782C28.9851 28.4776 28.9634 28.6107 28.9735 28.7186C28.9802 28.7905 29.0223 28.8531 29.0839 28.883C29.1455 28.9129 29.2174 28.9056 29.2726 28.8638C29.3462 28.808 29.4237 28.7456 29.5038 28.6769C29.6468 28.7028 29.8713 28.7846 30.2049 28.9708C30.5939 29.188 31.1156 29.5383 31.806 30.0783C33.202 31.1703 34.4676 32.8917 35.3605 34.734C36.2547 36.579 36.762 38.5177 36.6701 40.0382C36.5784 41.5543 35.7937 43.3921 34.5926 45.1256C33.3941 46.8553 31.7972 48.4572 30.1121 49.5057C26.7352 51.607 23.4949 51.3816 21.7682 50.0244C20.8783 49.3249 20.17 48.5059 20.0264 47.4101C19.8827 46.3139 20.2959 44.8752 21.8024 42.9167C22.9889 41.3743 24.6321 40.4201 26.2152 39.8558C27.6933 39.3289 29.1062 39.1466 30.0178 39.1382V40.3302C27.109 40.0031 24.869 41.2528 23.4875 42.8535C22.7811 43.6719 22.2961 44.5855 22.0612 45.4326C21.8283 46.2729 21.8337 47.0805 22.1577 47.6565C22.4601 48.1941 22.845 48.568 23.3071 48.7805C23.7677 48.9923 24.2894 49.0365 24.8559 48.9436C25.9818 48.7588 27.3181 48.0265 28.7975 46.9066C30.3349 45.7427 31.0128 43.8226 31.1695 41.6378C31.3261 39.4523 30.9645 36.9697 30.3918 34.6278C29.8108 32.252 28.6707 31.0544 27.881 30.2248L27.8706 30.2139C27.673 30.0064 27.5042 29.8283 27.3699 29.6604C27.2357 29.4924 27.1461 29.3466 27.0994 29.208C27.0546 29.075 27.0471 28.9424 27.0879 28.7913C27.1303 28.6349 27.2271 28.4493 27.4074 28.2209C28.2143 27.1988 28.4593 25.5267 28.0478 24.2365C27.8402 23.5856 27.4605 23.0164 26.8855 22.6811C26.309 22.3448 25.5616 22.2585 24.6468 22.5223C23.7283 22.7871 23.0791 23.2814 22.6173 23.9539C22.159 24.6212 21.8934 25.4521 21.7186 26.3778C21.5439 27.3031 21.4571 28.3412 21.3667 29.4281L21.3647 29.4527C21.2746 30.5362 21.1802 31.6724 20.9931 32.8197C20.7191 34.5003 20.6407 36.3187 20.5707 37.9435C20.543 38.5855 20.5166 39.1973 20.48 39.7584C20.4147 40.7596 20.3175 41.5908 20.132 42.168C20.0394 42.4558 19.93 42.6636 19.805 42.7974C19.6852 42.9256 19.5473 42.9908 19.3748 42.9908C19.0528 42.9908 18.6655 42.8728 18.2401 42.6655C17.8173 42.4593 17.3707 42.1718 16.934 41.8486C16.0899 41.2238 15.2974 40.4768 14.8077 39.9607C14.6838 38.0306 15.421 35.3266 16.4198 32.6948C17.4277 30.039 18.687 27.4938 19.5382 25.9637C19.5434 25.9544 19.5479 25.9447 19.5516 25.9347C20.2512 24.0441 21.2605 22.8001 22.3871 22.0337C23.515 21.2664 24.7717 20.9701 25.9755 20.9948C27.1804 21.0195 28.3271 21.3659 29.2277 21.877C30.1347 22.3917 30.7643 23.0568 30.9792 23.6985C31.303 24.6658 31.1391 25.5956 30.7654 26.4012C30.404 27.1805 29.8507 27.8323 29.3771 28.2624Z" fill="#0B0200"/>
<path d="M42.3951 33.5459C41.5711 35.1756 40.4038 35.1106 39.9231 34.8744C38.1722 34.8744 39.5112 29.2061 41.6741 28.8519C43.8371 28.4976 43.4251 31.5089 42.3951 33.5459Z" fill="white"/>
<path fill-rule="evenodd" clip-rule="evenodd" d="M43.2321 30.3836C43.2685 31.3272 42.9311 32.5462 42.4559 33.524C42.0686 34.321 41.5865 34.7318 41.1137 34.9025C40.6674 35.0637 40.2538 35.0017 39.987 34.8798C39.742 34.8661 39.5501 34.7521 39.4144 34.5787C39.2752 34.4008 39.1938 34.1604 39.1523 33.8939C39.0691 33.3587 39.1378 32.6563 39.3161 31.9542C39.4949 31.2506 39.7877 30.5317 40.1658 29.9634C40.5383 29.4037 41.0198 28.951 41.5938 28.8532C42.1395 28.7602 42.5596 28.8868 42.8378 29.1936C43.1026 29.4855 43.214 29.9144 43.2321 30.3836ZM42.547 29.4047C42.3717 29.2114 42.1012 29.1078 41.6638 29.1823C41.2547 29.252 40.8467 29.5951 40.4877 30.1348C40.1343 30.6658 39.8537 31.35 39.6813 32.0285C39.5086 32.7085 39.4485 33.3672 39.5233 33.8477C39.5608 34.089 39.6301 34.2701 39.7213 34.3866C39.8069 34.4961 39.9083 34.5461 40.0371 34.5461H40.0868L40.13 34.5682C40.3028 34.6566 40.6174 34.7205 40.9735 34.5918C41.3278 34.4638 41.7508 34.1347 42.1125 33.3904C42.5736 32.4416 42.8917 31.2734 42.8578 30.3951C42.8408 29.9534 42.7357 29.6127 42.547 29.4047Z" fill="#0B0200"/>
<path d="M6.1784 18.3728C6.24589 17.4472 8.40018 15.3516 9.46889 14.4195C9.73888 14.1788 14.2499 19.2047 16.4717 21.7477C16.4155 22.2298 16.2186 23.5604 15.8811 25.0261C15.5436 26.4917 14.3343 26.7938 13.7718 26.7617C11.2126 24.3511 6.1109 19.2985 6.1784 18.3728Z" fill="#FEC46E"/>
<path fill-rule="evenodd" clip-rule="evenodd" d="M11.5024 17.0075C13.1709 18.5019 15.1213 20.3322 16.4082 21.5618C16.4561 21.6076 16.479 21.672 16.47 21.7361C16.4038 22.21 16.1742 23.5044 15.781 24.9296C15.5684 25.7005 15.0767 26.1713 14.5502 26.4412C14.0305 26.7076 13.4773 26.7787 13.1176 26.7615C13.0709 26.7593 13.0261 26.7427 12.99 26.7143C11.5066 25.5481 9.28595 23.7423 7.44472 22.115C6.52464 21.3018 5.69566 20.53 5.10028 19.9033C4.80309 19.5905 4.55956 19.3092 4.39151 19.074C4.3076 18.9565 4.23888 18.8456 4.19187 18.7444C4.14696 18.6476 4.11125 18.5378 4.12066 18.4301C4.13382 18.2793 4.19542 18.1217 4.27999 17.9671C4.36573 17.8104 4.48217 17.6441 4.61885 17.4735C4.89217 17.1323 5.25834 16.7592 5.65591 16.3905C6.45153 15.6526 7.39109 14.916 8.01441 14.4621C8.0911 14.4058 8.17592 14.4083 8.21944 14.4139C8.26726 14.42 8.3121 14.4355 8.34869 14.4508C8.42332 14.4819 8.50985 14.5319 8.60218 14.5919C8.7894 14.7134 9.03595 14.8992 9.32428 15.1308C9.90263 15.5956 10.6685 16.2607 11.5024 17.0075ZM8.20546 14.8461C7.59281 15.2961 6.70894 15.9936 5.95959 16.6885C5.56924 17.0505 5.21994 17.4076 4.96501 17.7259C4.83755 17.885 4.73666 18.0307 4.66622 18.1594C4.59462 18.2903 4.56119 18.3917 4.55482 18.4646C4.55483 18.4644 4.55421 18.4733 4.55945 18.494C4.56457 18.5143 4.57414 18.5414 4.5902 18.576C4.62256 18.6457 4.67561 18.7337 4.75151 18.8399C4.90306 19.052 5.13127 19.3171 5.42308 19.6242C6.0057 20.2374 6.82378 20.9996 7.7408 21.8101C9.55014 23.4092 11.7305 25.184 13.2094 26.3483C13.503 26.3503 13.937 26.2837 14.344 26.0751C14.778 25.8526 15.1817 25.4693 15.3597 24.8238C15.7223 23.5093 15.9436 22.3083 16.0234 21.7823C14.7384 20.5559 12.8353 18.7714 11.2042 17.3105C10.3718 16.565 9.61275 15.906 9.04362 15.4487C8.75821 15.2194 8.52539 15.0447 8.35714 14.9355C8.29251 14.8936 8.2423 14.8645 8.20546 14.8461Z" fill="#0B0200"/>
<path d="M8.2352 12.9627L4.98604 16.4705C4.08352 15.7121 4.35424 14.29 3.90297 13.1523C3.4517 12.0146 1.28562 11.0665 0.653837 10.5925C0.0220569 10.1184 -0.429214 9.07553 0.653837 8.41187C1.73689 7.74822 2.72968 9.07553 3.72248 10.4028C4.71528 11.7302 5.52757 12.3938 6.52036 12.3938C7.3146 12.3938 7.99452 12.773 8.2352 12.9627Z" fill="#FEC46E"/>
<path fill-rule="evenodd" clip-rule="evenodd" d="M3.88087 10.3593L3.89179 10.3738C4.83417 11.6308 5.55827 12.1907 6.40838 12.1907C7.21695 12.1907 7.90458 12.5725 8.15843 12.772C8.20257 12.8067 8.23033 12.8596 8.23461 12.9172C8.2389 12.9749 8.21931 13.0317 8.18083 13.0731L5.08311 16.4097C5.01421 16.4839 4.90282 16.4911 4.82568 16.4265C4.33768 16.0173 4.17735 15.4344 4.07907 14.8622C4.05282 14.7094 4.03088 14.5585 4.00926 14.4097C3.94705 13.9817 3.88752 13.5721 3.73583 13.1906C3.64433 12.9605 3.45894 12.7252 3.20515 12.4905C2.95325 12.2574 2.64625 12.036 2.32792 11.8303C2.02185 11.6325 1.71038 11.4524 1.43254 11.2917C1.4217 11.2855 1.4109 11.2792 1.40016 11.273C1.11935 11.1106 0.865547 10.9632 0.703718 10.8421C0.372904 10.5945 0.0756962 10.19 0.012306 9.7383C-0.0199782 9.50823 0.0090869 9.26717 0.125367 9.03718C0.241032 8.80841 0.436608 8.60302 0.718565 8.43065C1.01563 8.24905 1.31527 8.20026 1.61057 8.25881C1.90016 8.31623 2.17275 8.47415 2.42816 8.68233C2.9308 9.09203 3.4158 9.73895 3.88087 10.3593ZM1.53923 8.65402C1.33706 8.61394 1.13118 8.64406 0.911953 8.77808C0.677621 8.92133 0.539762 9.07665 0.464508 9.2255C0.389869 9.37313 0.370532 9.52659 0.392028 9.67978C0.436197 9.99454 0.655277 10.3115 0.9268 10.5148C1.06614 10.6191 1.29635 10.7535 1.58561 10.9208C1.59704 10.9275 1.60855 10.9341 1.62013 10.9408C1.8965 11.1006 2.2152 11.2849 2.52938 11.4879C2.8564 11.6993 3.184 11.9344 3.45914 12.1889C3.73239 12.4417 3.96648 12.7249 4.09011 13.0359C4.26161 13.4672 4.33114 13.9473 4.3949 14.3875C4.41509 14.5269 4.43471 14.6623 4.4568 14.791C4.54033 15.2772 4.65879 15.6861 4.93734 15.9899L7.74161 12.9694C7.45527 12.8016 6.96164 12.5929 6.40838 12.5929C5.36543 12.5929 4.54067 11.8904 3.58999 10.6223C3.11186 9.9846 2.65399 9.37597 2.19253 8.99983C1.96392 8.81349 1.74711 8.69524 1.53923 8.65402Z" fill="#0B0200"/>
<path d="M34.7416 17.8057L30.8828 22.4333L31.6357 24.705L36.6239 19.4043C37.471 19.5726 39.598 19.7409 41.3297 19.0678C43.0615 18.3947 46.0669 13.9074 47.3532 11.7479C46.7509 6.90157 41.6435 6.02654 39.1651 6.19482C37.9416 7.51296 35.2875 10.6709 34.4592 12.7575C33.631 14.8441 34.3024 16.9924 34.7416 17.8057Z" fill="#FEC46E"/>
<path fill-rule="evenodd" clip-rule="evenodd" d="M39.2657 4.54005C38.6707 5.26077 37.7599 6.43987 36.8944 7.71653C35.9989 9.0375 35.1625 10.4474 34.7679 11.5577C33.9844 13.7624 34.6214 16.0436 35.0347 16.8983C35.0679 16.9669 35.0601 17.0482 35.0145 17.1093L31.3129 22.0669L31.9099 24.0787L36.5293 18.5966C36.5784 18.5383 36.6559 18.5121 36.7303 18.5287C37.5352 18.7072 39.5602 18.8831 41.1932 18.1742C41.5713 18.0101 42.046 17.5972 42.5755 17.0018C43.0994 16.4128 43.6578 15.6675 44.2056 14.8674C45.2835 13.2931 46.3103 11.5219 46.9379 10.3498C46.6376 7.82243 45.3001 6.33758 43.7449 5.49786C42.2045 4.66613 40.4454 4.4661 39.2657 4.54005ZM43.9396 5.13836C45.6129 6.04187 47.0501 7.65488 47.3519 10.3673C47.3565 10.4082 47.3486 10.4495 47.3292 10.4859C46.6995 11.6666 45.6494 13.483 44.5435 15.0981C43.9907 15.9054 43.4214 16.6663 42.8816 17.2732C42.3475 17.8738 41.8226 18.3467 41.3564 18.549C39.6907 19.2721 37.6796 19.1309 36.7639 18.953L31.9783 24.6324C31.9299 24.6899 31.8536 24.7162 31.7799 24.7009C31.7062 24.6855 31.6469 24.631 31.6255 24.5589L30.8912 22.0849C30.8729 22.0231 30.8848 21.9563 30.9234 21.9047L34.6134 16.9626C34.1728 15.9731 33.5827 13.6703 34.3821 11.421C34.7952 10.2589 35.6567 8.81305 36.5554 7.48744C37.4566 6.15809 38.406 4.9341 39.0064 4.21176C39.0418 4.16913 39.0931 4.14268 39.1484 4.13849C40.3862 4.04463 42.2767 4.24049 43.9396 5.13836Z" fill="#0B0200"/>
<path fill-rule="evenodd" clip-rule="evenodd" d="M39.9486 7.26268C40.0358 7.32531 40.0558 7.44681 39.9932 7.53405L35.4222 13.901C35.3596 13.9883 35.2381 14.0082 35.1509 13.9456C35.0636 13.8829 35.0437 13.7614 35.1063 13.6742L39.6772 7.30724C39.7399 7.22 39.8614 7.20005 39.9486 7.26268Z" fill="#0B0200"/>
<path fill-rule="evenodd" clip-rule="evenodd" d="M41.4525 8.39842C41.5398 8.46106 41.5597 8.58255 41.4971 8.6698L36.9261 15.0368C36.8635 15.124 36.742 15.1439 36.6548 15.0813C36.5675 15.0187 36.5476 14.8972 36.6102 14.8099L41.1811 8.44298C41.2438 8.35574 41.3653 8.33579 41.4525 8.39842Z" fill="#0B0200"/>
<path fill-rule="evenodd" clip-rule="evenodd" d="M43.1322 9.54881C43.2194 9.61145 43.2394 9.73294 43.1768 9.82019L38.6058 16.1871C38.5432 16.2744 38.4217 16.2943 38.3345 16.2317C38.2472 16.1691 38.2273 16.0476 38.2899 15.9603L42.8608 9.59337C42.9235 9.50613 43.045 9.48618 43.1322 9.54881Z" fill="#0B0200"/>
<path fill-rule="evenodd" clip-rule="evenodd" d="M44.4818 10.749C44.5691 10.8116 44.589 10.9331 44.5264 11.0204L39.9554 17.3873C39.8928 17.4746 39.7713 17.4945 39.6841 17.4319C39.5968 17.3693 39.5769 17.2478 39.6395 17.1605L44.2104 10.7936C44.2731 10.7063 44.3946 10.6864 44.4818 10.749Z" fill="#0B0200"/>
<path d="M11.0992 7.17885C8.34917 11.916 13.3071 15.2535 16.1298 16.3301C20.5734 20.3675 29.0417 17.7656 30.3832 16.9582C31.7247 16.1507 35.1623 8.43491 34.9946 4.4873C34.8269 0.539688 31.1378 -0.71637 29.0417 0.898562C27.3649 2.19051 27.0015 2.03499 27.0295 1.79575C24.9334 -1.79299 22.1666 0.808843 19.3998 2.60321C16.6329 4.39758 14.5368 1.25744 11.0992 7.17885Z" fill="#CC2608"/>
<path fill-rule="evenodd" clip-rule="evenodd" d="M20.5551 2.23567C20.2204 2.46336 19.8822 2.6934 19.5437 2.91154C18.8297 3.37167 18.1586 3.51427 17.5105 3.5651C17.2466 3.5858 16.9838 3.5914 16.7265 3.59688C16.6708 3.59807 16.6154 3.59925 16.5603 3.60057C16.2477 3.6081 15.941 3.62031 15.6312 3.66282C15.0167 3.74713 14.3865 3.95109 13.7032 4.48289C13.0161 5.01757 12.2669 5.89019 11.4279 7.32631C10.77 8.45243 10.5804 9.48105 10.6945 10.4051C10.809 11.3323 11.2317 12.1742 11.8305 12.9182C13.0319 14.4107 14.9152 15.4757 16.2889 15.9963C16.3098 16.0042 16.3293 16.0162 16.3462 16.0315C18.4781 17.9562 21.5956 18.3115 24.3785 18.0713C25.7652 17.9516 27.058 17.6849 28.0855 17.3992C29.1181 17.112 29.8685 16.8097 30.1776 16.6248C30.3107 16.5452 30.4901 16.3654 30.7056 16.0799C30.9176 15.7991 31.153 15.4319 31.4008 14.9967C31.8962 14.1265 32.4344 12.9961 32.9273 11.7677C33.9168 9.30162 34.7071 6.48224 34.6265 4.5972C34.4682 0.894852 31.005 -0.25925 29.054 1.23438C28.2258 1.86847 27.7018 2.16389 27.3771 2.26462C27.2203 2.31326 27.0709 2.32931 26.9523 2.27066C26.887 2.23834 26.8358 2.18524 26.8062 2.11655C26.7908 2.08077 26.7829 2.04465 26.7799 2.01021C26.2868 1.18719 25.768 0.73697 25.239 0.5322C24.6998 0.323496 24.1236 0.359497 23.5079 0.56012C22.8901 0.761434 22.2451 1.12443 21.5773 1.55321C21.2441 1.76713 20.908 1.9956 20.5683 2.2267L20.5551 2.23567ZM25.365 0.164114C26.0029 0.411035 26.5894 0.946502 27.1204 1.84984C27.1324 1.87026 27.1406 1.89269 27.1449 1.91598C27.1712 1.91416 27.2126 1.90761 27.2739 1.88858C27.5343 1.80781 28.0152 1.54703 28.8388 0.916486C31.0174 -0.75147 34.8224 0.553437 34.9945 4.57941C35.0791 6.55852 34.2588 9.44755 33.2661 11.9214C32.7679 13.1631 32.2221 14.3105 31.716 15.1995C31.463 15.6438 31.2184 16.0266 30.9929 16.3252C30.7709 16.6192 30.5554 16.8483 30.3582 16.9662C30.0065 17.1766 29.2186 17.489 28.1787 17.7782C27.1336 18.0688 25.8195 18.3399 24.4083 18.4618C21.6062 18.7036 18.378 18.36 16.1336 16.3532C14.7291 15.8156 12.7998 14.7249 11.5507 13.1729C10.9195 12.3888 10.4555 11.4786 10.3292 10.4561C10.2026 9.4306 10.4184 8.31197 11.115 7.1196C11.9691 5.6576 12.7479 4.74086 13.4856 4.16679C14.227 3.58983 14.9183 3.36566 15.584 3.27433C15.9143 3.22901 16.2373 3.21653 16.552 3.20896C16.6092 3.20758 16.666 3.20637 16.7225 3.20516C16.9794 3.19967 17.2303 3.1943 17.4834 3.17445C18.0948 3.12649 18.704 2.99463 19.3527 2.57655C19.6874 2.3609 20.0223 2.13305 20.3583 1.90453L20.3697 1.89672C20.7088 1.66607 21.0489 1.43485 21.3868 1.21789C22.0612 0.78492 22.7376 0.401434 23.4 0.185594C24.0645 -0.0309357 24.7272 -0.0827568 25.365 0.164114Z" fill="#0B0200"/>
<path d="M14.4344 17.7922C14.2966 16.735 14.8938 16.4707 15.2096 16.4707C19.8265 19.444 26.7807 18.095 29.6806 17.0488C29.9678 17.1039 30.542 17.5279 30.542 18.7832C30.542 20.3525 29.7668 21.5913 30.542 22.665C31.1622 23.524 30.8004 24.0691 30.542 24.2343C27.6134 28.116 16.9324 26.712 15.2096 25.3905C13.4868 24.0691 15.2096 23.2432 15.2096 21.5913C15.2096 19.9395 14.6066 19.1136 14.4344 17.7922Z" fill="#CC2608"/>
<path fill-rule="evenodd" clip-rule="evenodd" d="M14.6897 16.7901C14.8974 16.553 15.1763 16.4707 15.3791 16.4707C15.4164 16.4707 15.4529 16.4812 15.4838 16.5009C17.6936 17.9069 20.475 18.2974 23.0719 18.2051C25.6669 18.1129 28.0544 17.5392 29.4542 17.0403C29.4871 17.0285 29.5227 17.0258 29.5571 17.0323C29.9604 17.1087 30.5498 17.6234 30.5498 18.8812C30.5498 19.4368 30.4491 19.961 30.3588 20.4315C30.3233 20.6164 30.2893 20.793 30.2637 20.96C30.171 21.5656 30.1793 22.0663 30.5164 22.5276C30.8402 22.9707 30.9231 23.3554 30.8693 23.6663C30.8192 23.9552 30.6539 24.1612 30.4955 24.2723C29.7437 25.2408 28.5177 25.8674 27.1018 26.2497C25.6717 26.6359 24.0269 26.7787 22.4268 26.7636C20.8259 26.7486 19.2618 26.5754 17.9898 26.3251C17.3539 26.2 16.7883 26.055 16.3262 25.8998C15.8682 25.746 15.4972 25.5773 15.2619 25.399C14.823 25.0665 14.5805 24.7478 14.4876 24.4191C14.3945 24.0898 14.4601 23.7802 14.571 23.486C14.6264 23.3393 14.6949 23.1915 14.7637 23.0449C14.7696 23.0324 14.7755 23.02 14.7814 23.0075C14.8452 22.8716 14.9091 22.7358 14.9675 22.594C15.0945 22.2861 15.1914 21.9604 15.1914 21.5923C15.1914 20.818 15.0489 20.2378 14.883 19.6875C14.8519 19.5846 14.8198 19.482 14.7875 19.3789C14.648 18.9335 14.5056 18.4788 14.4353 17.9464C14.3637 17.4033 14.4794 17.0301 14.6897 16.7901ZM14.9786 17.0173C14.8535 17.16 14.7448 17.4247 14.8079 17.9023C14.8739 18.403 15.0058 18.8246 15.1444 19.2676C15.1775 19.3734 15.211 19.4803 15.244 19.5898C15.4147 20.1559 15.5669 20.7717 15.5669 21.5923C15.5669 22.0215 15.4533 22.3935 15.3173 22.7234C15.2554 22.8733 15.1881 23.0166 15.1247 23.1513C15.1187 23.1641 15.1127 23.1769 15.1068 23.1895C15.0375 23.337 14.9745 23.4733 14.9246 23.6056C14.8251 23.8696 14.7855 24.0983 14.8502 24.3271C14.9151 24.5566 15.0935 24.816 15.4964 25.1213C15.682 25.262 16.0055 25.4148 16.4516 25.5646C16.8937 25.7131 17.4422 25.8541 18.0662 25.9769C19.3142 26.2225 20.854 26.3932 22.4306 26.408C24.0081 26.4228 25.6144 26.2815 26.9989 25.9077C28.3858 25.5332 29.5291 24.9312 30.21 24.0396C30.2231 24.0225 30.2393 24.0076 30.2579 23.9959C30.3436 23.9418 30.4635 23.8122 30.4988 23.6087C30.5333 23.4093 30.49 23.1163 30.2077 22.7301C29.7873 22.1547 29.7956 21.5392 29.8922 20.9089C29.9214 20.7183 29.958 20.5278 29.9951 20.3349C30.0834 19.8758 30.1743 19.4029 30.1743 18.8812C30.1743 17.8081 29.7231 17.465 29.5281 17.3938C28.0871 17.8998 25.6897 18.468 23.0859 18.5605C20.4688 18.6536 17.6204 18.2667 15.3275 16.8296C15.2238 16.8423 15.0869 16.8936 14.9786 17.0173Z" fill="#0B0200"/>
</svg>
